<?xml version="1.0" standalone="no"?>
<!DOCTYPE svg PUBLIC "-//W3C//DTD SVG 20010904//EN"
 "http://www.w3.org/TR/2001/REC-SVG-20010904/DTD/svg10.dtd">
<svg version="1.0" xmlns="http://www.w3.org/2000/svg"
 width="559.000000pt" height="447.000000pt" viewBox="0 0 559.000000 447.000000"
 preserveAspectRatio="xMidYMid meet">

<g transform="translate(0.000000,447.000000) scale(0.100000,-0.100000)"
fill="#000000" stroke="none">
<path d="M1044 3036 c-87 -32 -145 -79 -202 -162 -51 -74 -52 -89 -52 -1082 0
-1013 -3 -964 60 -997 63 -33 60 -34 452 230 l282 190 675 5 676 5 55 26 c72
34 140 101 175 174 24 47 30 75 33 147 l4 88 -84 0 -85 0 -5 -65 c-7 -83 -33
-133 -89 -167 l-44 -27 -675 -3 c-777 -3 -670 12 -867 -124 -65 -44 -154 -104
-198 -133 -44 -30 -91 -62 -105 -72 -14 -10 -37 -26 -53 -34 l-27 -16 2 868 3
868 32 47 c59 84 -3 79 1008 76 l890 -3 37 -28 c22 -17 48 -52 63 -82 25 -53
25 -56 25 -324 l0 -271 86 0 85 0 -3 308 -3 307 -27 56 c-37 75 -109 144 -188
183 l-65 31 -905 2 -905 2 -61 -23z"/>
</g>
</svg>
